<?xml version="1.0" encoding="UTF-8" standalone="no"?>
<svg
   xmlns:dc="http://purl.org/dc/elements/1.1/"
   xmlns:cc="http://creativecommons.org/ns#"
   xmlns:rdf="http://www.w3.org/1999/02/22-rdf-syntax-ns#"
   xmlns:svg="http://www.w3.org/2000/svg"
   xmlns="http://www.w3.org/2000/svg"
   xmlns:sodipodi="http://sodipodi.sourceforge.net/DTD/sodipodi-0.dtd"
   xmlns:inkscape="http://www.inkscape.org/namespaces/inkscape"
   width="700"
   height="500"
   id="svg2"
   version="1.1"
   inkscape:version="0.48.5 r10040"
   sodipodi:docname="Flag_of_Albania.svg">
  <metadata
     id="metadata13">
    <rdf:RDF>
      <cc:Work
         rdf:about="">
        <dc:format>image/svg+xml</dc:format>
        <dc:type
           rdf:resource="http://purl.org/dc/dcmitype/StillImage" />
      </cc:Work>
    </rdf:RDF>
  </metadata>
  <defs
     id="defs11" />
  <sodipodi:namedview
     pagecolor="#ffffff"
     bordercolor="#666666"
     borderopacity="1"
     objecttolerance="10"
     gridtolerance="10"
     guidetolerance="10"
     inkscape:pageopacity="0"
     inkscape:pageshadow="2"
     inkscape:window-width="1366"
     inkscape:window-height="705"
     id="namedview9"
     showgrid="false"
     inkscape:zoom="1.1556145"
     inkscape:cx="463.26913"
     inkscape:cy="294.57737"
     inkscape:window-x="-8"
     inkscape:window-y="-8"
     inkscape:window-maximized="1"
     inkscape:current-layer="svg2"
     showguides="true"
     inkscape:guide-bbox="true" />
  <path
     style="fill:#e41e20"
     d="m 0,0 700,0 0,500 -700,0 z"
     id="rect4" />
  <g
     id="g3006" />
  <g
     id="surface1"
     transform="matrix(1.25,0,0,1.25,301.57876,-2.283226)" />
  <path
     id="path2998"
     style="fill:#000000;fill-opacity:1;fill-rule:evenodd;stroke:none"
     d="m 399.19072,106.22352 c -3.55847,0 -5.75674,1.2198 -5.75674,2.69847 0,1.50061 2.19827,2.7248 5.75674,2.7248 3.53653,0 5.78307,-1.33388 5.78307,-2.83888 0,-1.47868 -2.24654,-2.58439 -5.78307,-2.58439 z m -38.20462,27.22337 c 0.80567,-0.60058 1.06447,-1.24023 0.0684,-1.5918 -0.95702,-0.35643 -3.18847,-0.78125 -4.67774,-1.03026 4.25294,-4.25294 7.86622,-5.63477 15.91309,-7.93457 -1.94824,-0.84962 -9.63867,-0.63966 -9.63867,-0.63966 2.30468,-3.26171 7.40723,-8.22265 13.99415,-10.62988 -4.35548,-3.08105 -5.1709,-3.2959 -9.53125,-6.94336 7.51465,-0.53222 13.8916,-1.94824 20.34178,-3.90137 4.07228,-1.90917 9.70704,-3.505846 12.47072,-3.574208 4.85351,-0.07324 12.93456,1.557616 12.71972,5.312498 13.56934,-2.33887 14.95605,3.26171 14.1748,8.22265 -1.2793,-1.94824 -2.87597,-3.03222 -4.07715,-3.22754 -3.65234,-0.59082 -7.93456,2.61231 -10.62987,5.74219 4.78515,1.13281 8.50585,0.39063 12.22656,-0.24902 6.11327,-1.05469 7.36816,-3.87696 10.41504,-7.0166 2.83691,-2.90528 5.88378,-2.08985 4.92675,2.44628 -3.07617,6.875 -14.67285,7.96875 -19.66797,8.00782 -3.75488,0 -7.93457,-0.53223 -10.23926,-0.0732 0.79103,1.37695 2.89063,2.72461 6.0254,2.94434 6.63085,0.44433 10.77148,-2.51954 10.77148,-2.51954 -0.35157,2.41211 -3.4375,4.7168 -9.49707,5.88379 -9.95606,2.16308 -18.22753,3.80371 -23.70606,6.80176 -8.46191,4.63867 -15.97167,13.48632 -16.83105,20.80079 -1.07422,9.17967 2.23145,14.47265 8.22265,16.0498 6.87013,1.84081 14.52149,-4.75098 13.6084,-15.37598 -0.53222,-2.44629 -3.2959,-8.75489 -0.95702,-10.06347 10.87402,-5.98634 24.05761,-12.0459 33.58886,-15.65919 2.62207,-0.99609 4.75097,2.54884 5.5957,3.93066 16.23047,-1.98241 30.83009,-12.96874 37.42187,-24.62402 4.4629,-7.973623 11.87013,0 10.62989,7.50977 -2.02149,8.39844 -8.39844,14.458 -16.08886,18.7793 -7.86621,4.32129 -17.68066,8.57421 -27.63673,8.36425 -5.38573,1.02539 -5.31737,7.93458 1.09864,9.24805 12.6123,0.0684 22.6416,-0.24902 32.09961,-9.38965 7.19238,-6.55761 11.23535,1.27441 9.17969,5.70313 -3.54492,13.64257 -23.03224,17.4707 -42.73437,13.07617 -7.61719,-1.2793 -3.28125,5.61523 -0.91798,6.97754 8.25195,5.91795 22.99316,11.69432 35.9961,-0.0684 5.91796,-4.53613 9.95605,-0.70801 7.7246,5.84473 -5.7373,17.14844 -27.77831,13.53516 -42.91015,5.10254 -3.89649,-2.16309 -7.43652,2.8711 -2.69044,6.7334 18.81349,13.14453 28.20313,13.28613 36.70899,8.21777 10.62989,-4.17969 11.55274,7.62208 5.24414,11.48438 -7.0166,4.32128 -24.87304,1.09863 -37.94921,-7.1582 -5.63477,-4.18458 -5.87892,2.37305 -2.33887,4.96093 15.55664,13.42774 21.68457,16.93359 37.88085,14.77539 8.042,-0.63965 7.93458,9.28223 1.5918,13.14454 -8.6084,5.27831 -25.47363,-3.50586 -38.5498,-14.35059 -5.52735,-2.93946 -6.41602,1.87988 -3.68652,7.583 7.97362,10.09766 15.4834,16.04981 22.71484,18.81348 7.22656,2.7295 14.16992,2.30468 19.09668,0.60547 5.98633,-2.05566 6.7334,4.17969 3.4375,9.84864 -2.02148,3.40331 -10.27343,4.49706 -19.23828,1.34765 -8.93067,-3.18848 -18.53515,-10.5957 -25.12207,-19.31153 -5.70801,-5.03417 -5,1.7334 -2.41211,6.44532 13.21778,20.87402 25.26368,28.59863 41.17188,27.28516 7.05077,-1.167 8.64746,4.2871 4.1455,9.35546 -7.8662,6.55279 -17.74902,6.34283 -26.3623,-0.10737 -7.68555,-7.40723 -22.3584,-23.31543 -30.04395,-31.85547 -5.41992,-4.32128 -7.1582,-0.0684 -5.5664,8.71583 1.45507,5.03417 5.06836,10.3125 14.95605,14.1748 6.7334,3.8623 1.66503,9.17967 -3.36914,9.24805 -2.79785,0.0732 -8.43261,-3.18848 -12.7539,-8.042 -5.70313,-6.41601 -6.0254,-10.70313 -9.17481,-20.65918 -2.94434,-4.85351 -8.22265,-2.58301 -8.22265,2.48047 2.51465,9.99512 4.71191,11.7627 9.81445,15.87402 4.92676,4.57031 -3.40333,6.13281 -6.20118,4.21875 -8.11524,-5.45897 -11.08886,-12.50976 -13.78417,-18.95996 -1.94825,-4.63866 -7.61719,-2.37304 -4.99513,5.20996 6.26954,18.10548 16.61621,25.2295 34.6875,28.87696 1.84571,0.35644 2.94434,1.42089 2.30469,3.54492 -2.40723,2.51465 -4.85351,4.81933 -7.26563,7.29981 0,0 20.25443,5.08157 31.43803,8.34407 l 15.4062,-10.25 c -1.00048,-3.7338 5.59542,-8.23163 10.60123,-4.52383 5.48685,-2.53414 8.52424,-1.41973 10.68007,2.31427 -4.18313,-1.3594 -6.30784,-0.41826 -8.03125,1.5846 -1.2149,4.53406 -7.27994,7.30823 -11.6027,4.81248 l -11.57996,8.06247 19.51661,-0.531 c 1.39597,-5.20985 11.06262,-5.2316 13.73465,-0.60353 3.51487,0 5.85826,1.92124 7.06247,6.41542 -3.82147,-2.77761 -5.4781,-2.44353 -7.43751,-1.91851 -2.29322,3.97198 -10.15474,3.76498 -12.32845,0 l -18.74011,0.51311 10.94846,6.14732 c 6.30444,-3.63987 14.44939,1.82575 12.92658,7.509 2.65312,2.15644 3.00723,5.26015 1.31246,9.65627 -0.91565,-3.04839 -2.65558,-5.89883 -5.36143,-7.54196 -5.74096,1.53828 -11.2594,-0.26593 -11.2594,-5.96131 l -15.21807,-8.4246 -15.06313,5.78919 c 0,3.9394 -6.01016,6.91684 -11.16839,4.83046 -3.61407,0.42123 -4.12786,3.58674 -4.72996,6.02457 -1.97406,-3.50109 -2.34246,-7.12767 2.23287,-10.22178 0,-4.52919 5.83566,-7.34404 10.67041,-4.73359 l 12.76906,-4.43755 c -11.4681,-3.65525 -32.52774,-7.35457 -32.52774,-7.35457 -2.87108,2.69044 -5.16407,4.66984 -8.03517,7.07706 -1.52344,0.92285 -3.67676,0.87403 -6.02051,-2.11915 -7.1582,-10.38574 -13.92578,-29.29199 -24.27245,-31.89452 -3.80372,-0.95704 -8.37892,1.5625 -7.40724,9.88281 1.4795,12.65136 10.94727,23.16895 22.85645,31.04004 6.62597,4.32128 9.42382,2.41211 14.56055,2.16308 6.62597,0.74219 8.39844,3.96484 2.93945,8.43262 -5.06348,2.62207 -9.63379,2.97363 -13.32031,2.26562 -3.18848,-0.5664 -6.90918,-4.67772 -9.56543,-6.90917 -2.97852,-3.4375 -7.93946,0.63965 -4.5752,4.67773 6.13281,7.2998 12.29493,12.08492 19.84375,11.97754 7.97364,1.09863 6.48438,5.56153 1.20605,7.72461 -9.49706,3.93067 -18.10546,-3.40332 -22.43164,-8.25683 -3.36425,-3.64747 -5.77636,-3.78907 -5.1709,1.87987 3.33009,10.30763 7.9004,14.31153 15.3418,14.80958 6.02539,-0.53223 6.09375,4.11132 1.69923,7.26562 -10.0586,6.94336 -17.3584,-4.89257 -20.76173,-12.05079 -2.40722,-6.48437 -6.13281,-3.39843 -6.51855,1.91407 -0.0732,7.12402 3.15429,12.93457 11.76269,20.23437 L 350,402.80057 329.13106,371.09825 c 8.6084,-7.2998 11.83589,-13.11035 11.76269,-20.23437 -0.38574,-5.3125 -4.11133,-8.39844 -6.51855,-1.91407 -3.40333,7.15822 -10.70313,18.99415 -20.76173,12.05079 -4.39452,-3.1543 -4.32616,-7.79785 1.69923,-7.26562 7.4414,-0.49805 12.01171,-4.50195 15.3418,-14.80958 0.60546,-5.66894 -1.80665,-5.52734 -5.1709,-1.87987 -4.32618,4.85351 -12.93458,12.1875 -22.43164,8.25683 -5.27833,-2.16308 -6.76759,-6.62598 1.20605,-7.72461 7.54882,0.10738 13.71094,-4.67774 19.84375,-11.97754 3.36426,-4.03808 -1.59668,-8.11523 -4.5752,-4.67773 -2.65625,2.23145 -6.37695,6.34277 -9.56543,6.90917 -3.68652,0.70801 -8.25683,0.35645 -13.32031,-2.26562 -5.45899,-4.46778 -3.68652,-7.69043 2.93945,-8.43262 5.13673,0.24903 7.93458,2.1582 14.56055,-2.16308 11.90918,-7.87109 21.37695,-18.38868 22.85645,-31.04004 0.97168,-8.32031 -3.60352,-10.83985 -7.40724,-9.88281 -10.34667,2.60253 -17.11425,21.50878 -24.27245,31.89452 -2.34375,2.99318 -4.49707,3.042 -6.02051,2.11915 -2.8711,-2.40722 -5.16409,-4.38662 -8.03517,-7.07706 0,0 -21.05964,3.69932 -32.52774,7.35457 l 12.76906,4.43755 c 4.83475,-2.61045 10.67041,0.2044 10.67041,4.73359 4.57533,3.09411 4.20693,6.72069 2.23287,10.22178 -0.6021,-2.43783 -1.11589,-5.60334 -4.72996,-6.02457 -5.15823,2.08638 -11.16839,-0.89106 -11.16839,-4.83046 l -15.06313,-5.78919 -15.21807,8.4246 c 0,5.69538 -5.51844,7.49959 -11.2594,5.96131 -2.70585,1.64313 -4.44578,4.49357 -5.36143,7.54196 -1.69477,-4.39612 -1.34066,-7.49983 1.31246,-9.65627 -1.52281,-5.68325 6.62214,-11.14887 12.92658,-7.509 l 10.94846,-6.14732 -18.74011,-0.51311 c -2.17371,3.76498 -10.03523,3.97198 -12.32845,0 -1.95941,-0.52502 -3.61604,-0.8591 -7.43751,1.91851 1.20421,-4.49418 3.5476,-6.41542 7.06247,-6.41542 2.67203,-4.62807 12.33868,-4.60632 13.73465,0.60353 l 19.51661,0.531 -11.57996,-8.06247 c -4.32276,2.49575 -10.3878,-0.27842 -11.6027,-4.81248 -1.72341,-2.00286 -3.84812,-2.944 -8.03125,-1.5846 2.15583,-3.734 5.19322,-4.84841 10.68007,-2.31427 5.00581,-3.7078 11.60171,0.79003 10.60123,4.52383 l 15.4062,10.25 c 11.1836,-3.2625 31.43803,-8.34407 31.43803,-8.34407 -2.41212,-2.48048 -4.8584,-4.78516 -7.26563,-7.29981 -0.63965,-2.12403 0.45898,-3.18848 2.30469,-3.54492 18.07129,-3.64746 28.41796,-10.77148 34.6875,-28.87696 2.62206,-7.583 -3.04688,-9.84862 -4.99513,-5.20996 -2.69531,6.4502 -5.66893,13.50099 -13.78417,18.95996 -2.79785,1.91406 -11.12794,0.35156 -6.20118,-4.21875 5.10254,-4.11132 7.2998,-5.8789 9.81445,-15.87402 0,-5.06348 -5.27831,-7.33398 -8.22265,-2.48047 -3.14941,9.95605 -3.47168,14.24317 -9.17481,20.65918 -4.32129,4.85352 -9.95605,8.1152 -12.7539,8.042 -5.03417,-0.0684 -10.10254,-5.38575 -3.36914,-9.24805 9.88769,-3.8623 13.50098,-9.14063 14.95605,-14.1748 1.5918,-8.78423 -0.14648,-13.03711 -5.5664,-8.71583 -7.68555,8.54004 -22.3584,24.44824 -30.04395,31.85547 -8.61328,6.4502 -18.4961,6.66016 -26.3623,0.10737 -4.50196,-5.06836 -2.90527,-10.52246 4.1455,-9.35546 15.9082,1.31347 27.9541,-6.41114 41.17188,-27.28516 2.58789,-4.71192 3.2959,-11.47949 -2.41211,-6.44532 -6.58692,8.71583 -16.1914,16.12305 -25.12207,19.31153 -8.96485,3.14941 -17.2168,2.05566 -19.23828,-1.34765 -3.2959,-5.66895 -2.54883,-11.9043 3.4375,-9.84864 4.92676,1.69921 11.87012,2.12403 19.09668,-0.60547 7.23144,-2.76367 14.74122,-8.71582 22.71484,-18.81348 2.7295,-5.70312 1.84083,-10.52246 -3.68652,-7.583 -13.07617,10.84473 -29.9414,19.6289 -38.5498,14.35059 -6.34278,-3.86231 -6.4502,-13.78419 1.5918,-13.14454 16.19628,2.1582 22.32421,-1.34765 37.88085,-14.77539 3.54005,-2.58788 3.2959,-9.14551 -2.33887,-4.96093 -13.07617,8.25683 -30.93261,11.47948 -37.94921,7.1582 -6.3086,-3.8623 -5.38575,-15.66407 5.24414,-11.48438 8.50586,5.06836 17.8955,4.92676 36.70899,-8.21777 4.74608,-3.8623 1.20605,-8.89649 -2.69044,-6.7334 -15.13184,8.43262 -37.17285,12.0459 -42.91015,-5.10254 -2.23145,-6.55274 1.80664,-10.38086 7.7246,-5.84473 13.00294,11.76272 27.74415,5.98635 35.9961,0.0684 2.36327,-1.36231 6.69921,-8.25684 -0.91798,-6.97754 -19.70213,4.39453 -39.18945,0.5664 -42.73437,-13.07617 -2.05566,-4.42872 1.98731,-12.26074 9.17969,-5.70313 9.45801,9.14063 19.48731,9.45805 32.09961,9.38965 6.41601,-1.31347 6.48437,-8.22266 1.09864,-9.24805 -9.95607,0.20996 -19.77052,-4.04296 -27.63673,-8.36425 -7.69042,-4.3213 -14.06737,-10.38086 -16.08886,-18.7793 -1.24024,-7.50977 6.16699,-15.483393 10.62989,-7.50977 6.59178,11.65528 21.1914,22.64161 37.42187,24.62402 0.84473,-1.38182 2.97363,-4.92675 5.5957,-3.93066 9.53125,3.61329 22.71484,9.67285 33.58886,15.65919 2.33888,1.30858 -0.4248,7.61718 -0.95702,10.06347 -0.91309,10.625 6.73827,17.21679 13.6084,15.37598 5.9912,-1.57715 9.29687,-6.87013 8.22265,-16.0498 -0.85938,-7.31447 -8.36914,-16.16212 -16.83105,-20.80079 -5.47853,-2.99805 -13.75,-4.63868 -23.70606,-6.80176 -6.05957,-1.16699 -9.1455,-3.47168 -9.49707,-5.88379 0,0 4.14063,2.96387 10.77148,2.51954 3.13477,-0.21973 5.23437,-1.56739 6.0254,-2.94434 -2.30469,-0.45903 -6.48438,0.0732 -10.23926,0.0732 -4.99512,-0.0391 -16.5918,-1.13282 -19.66797,-8.00782 -0.95703,-4.53613 2.08984,-5.35156 4.92675,-2.44628 3.04688,3.13964 4.30177,5.96191 10.41504,7.0166 3.72071,0.63965 7.44141,1.38183 12.22656,0.24902 -2.69531,-3.12988 -6.97753,-6.33301 -10.62987,-5.74219 -1.20118,0.19532 -2.79785,1.2793 -4.07715,3.22754 -0.78125,-4.96094 0.60546,-10.56152 14.1748,-8.22265 -0.21484,-3.754882 7.86621,-5.385738 12.71972,-5.312498 2.76368,0.06836 8.39844,1.665038 12.47072,3.574208 6.45018,1.95313 12.82713,3.36915 20.34178,3.90137 -4.36035,3.64746 -5.17577,3.86231 -9.53125,6.94336 6.58692,2.40723 11.68947,7.36817 13.99415,10.62988 0,0 -7.69043,-0.20996 -9.63867,0.63966 8.04687,2.2998 11.66015,3.68163 15.91309,7.93457 -1.48927,0.24901 -3.72072,0.67383 -4.67774,1.03026 -0.99607,0.35157 -0.73727,0.99122 0.0684,1.5918 1.7334,1.29395 8.89617,9.42872 10.98609,11.37695 2.08993,-1.94823 9.2527,-10.083 10.9861,-11.37695 z m -60.17681,-27.22337 c 3.55847,0 5.75674,1.2198 5.75674,2.69847 0,1.50061 -2.19827,2.7248 -5.75674,2.7248 -3.53653,0 -5.78307,-1.33388 -5.78307,-2.83888 0,-1.47868 2.24654,-2.58439 5.78307,-2.58439 z"
     inkscape:connector-curvature="0"
     sodipodi:nodetypes="ccccccccccccccccccccccccccccccccccccccccccccccccccccccccccccccccccccccccccccccccccccccccccccccccccccccccccccccccccccccccccccccccccccccccccccccccccccccccccccccccccccccccccccccccccccccccccccccccccccccccccccccccccccccccccccccccccccccccccccccccccccccc" />
</svg>
