<?xml version="1.0" encoding="UTF-8" standalone="no"?>
<svg xmlns:rdf="http://www.w3.org/1999/02/22-rdf-syntax-ns#" xmlns="http://www.w3.org/2000/svg" xmlns:cc="http://creativecommons.org/ns#" xmlns:dc="http://purl.org/dc/elements/1.1/" height="105.68mm" width="120.71mm" version="1.1" viewBox="0 0 427.71506 374.4605">
  <g transform="translate(164.58 -630.85)">
    <g transform="matrix(9.7336 0 0 9.7336 -4567.6 -2716.2)">
      <path d="m472.93 343.87c-2.9276 0.62151-4.2649 3.6254-5.3931 6.0789-1.4295 3.1293-3.9973 5.6374-7.0452 7.1894-2.4002 1.5984-5.1175 3.4141-5.9295 6.3457-0.36756 2.8376-0.78791 5.6764-1.5839 8.428-0.60012 3.1896-0.57232 6.4481-0.62026 9.6802 0.74558 1.347 2.4905 0.40639 3.6932 0.66502h17.261c-0.84704-3.5326-2.6942-6.8011-3.0201-10.46 0.78185-2.1076 3.4128-1.4997 5.1537-1.4603 3.1723 0.0456 6.7621-0.90677 8.5371-3.7581 0.6716-2.0949-1.576-3.3997-3.0685-4.3202-3.2123-2.157-6.0896-4.776-9.0302-7.2704-1.357-1.8498-0.43113-4.2509-0.95366-6.3287-0.0109-1.9386 2.971-2.7752 2.2788-4.7914-0.0931 0.00074-0.1866 0.001-0.27947 0.002z"/>
      <path d="m483.52 368.62c2.3778 0.0842 6.5974-1.5887 6.1408 1.0589-0.45655 2.6476-3.8721-0.34182-6.1408-1.0589z"/>
      <path d="m490.11 367.07c2.2773-0.68919 5.7293-3.6365 6.1533-0.98346 0.42402 2.653-3.7746 0.92851-6.1533 0.98346z"/>
    </g>
  </g>
</svg>
