<?xml version="1.0" encoding="UTF-8" standalone="no"?>
<svg
   xmlns:dc="http://purl.org/dc/elements/1.1/"
   xmlns:cc="http://creativecommons.org/ns#"
   xmlns:rdf="http://www.w3.org/1999/02/22-rdf-syntax-ns#"
   xmlns:svg="http://www.w3.org/2000/svg"
   xmlns="http://www.w3.org/2000/svg"
   xmlns:sodipodi="http://sodipodi.sourceforge.net/DTD/sodipodi-0.dtd"
   xmlns:inkscape="http://www.inkscape.org/namespaces/inkscape"
   width="164.68349"
   height="164.68387"
   id="svg4136"
   version="1.1"
   inkscape:version="0.91 r13725"
   sodipodi:docname="llama-head.svg">
  <defs
     id="defs4140" />
  <metadata
     id="metadata4360">
    <rdf:RDF>
      <cc:Work
         rdf:about="">
        <dc:format>image/svg+xml</dc:format>
        <dc:type
           rdf:resource="http://purl.org/dc/dcmitype/StillImage" />
        <dc:title />
      </cc:Work>
    </rdf:RDF>
  </metadata>
  <sodipodi:namedview
     pagecolor="#ffffff"
     bordercolor="#666666"
     borderopacity="1"
     objecttolerance="10"
     gridtolerance="10"
     guidetolerance="10"
     inkscape:pageopacity="0"
     inkscape:pageshadow="2"
     inkscape:window-width="1918"
     inkscape:window-height="1026"
     id="namedview4356"
     showgrid="false"
     inkscape:zoom="5.0322433"
     inkscape:cx="97.556918"
     inkscape:cy="89.234174"
     inkscape:window-x="0"
     inkscape:window-y="26"
     inkscape:window-maximized="1"
     inkscape:current-layer="svg4136"
     fit-margin-top="0"
     fit-margin-left="0"
     fit-margin-right="0"
     fit-margin-bottom="0" />
  <path
     style="fill-rule:evenodd;stroke-width:0;stroke-miterlimit:2.41400003"
     d="M 82.3418,0 A 82.341919,82.341919 0 0 0 0,82.341795 82.341919,82.341919 0 0 0 16.98242,132.32421 c 0.67826,-1.36555 1.53123,-2.94052 2.29688,-3.89647 1.43598,-1.959 1.82812,-8.36133 1.82812,-8.36133 l -2.87305,3.91991 c 0,0 0.52551,-2.35177 1.4375,-4.05078 1.04602,-1.696 1.43796,-7.05337 1.96094,-11.23437 0.521,-4.181 1.6955,-4.31189 2.48047,-7.83789 0.654,-3.397995 3.6582,-8.753905 3.6582,-8.753905 l -3.6582,3.5293 1.4375,-2.74414 c 1.961,-1.699 5.35692,-7.83869 6.79492,-9.92969 1.435,-2.219002 1.43405,-4.834064 2.87305,-6.664064 1.568,-1.696 3.39453,-5.091797 3.39453,-5.091797 l -3.52734,2.744141 c 0.653,-0.784 1.83134,-6.272359 3.52734,-7.318359 2.745,-1.436 4.7043,-2.61075 6.4043,-5.09375 1.697,-2.481 5.74609,-3.658203 5.74609,-3.658203 l -4.04883,0.785156 c 0,0 5.35417,-2.219532 7.57617,-3.394532 2.09,-1.305999 6.40082,-3.137921 8.88282,-3.919921 0.5718,-0.175282 1.17023,-0.107394 1.78515,0.130859 0.0859,-0.04575 0.17137,-0.09767 0.25977,-0.148438 0.39399,-0.253844 0.78688,-0.511591 1.08398,-0.771484 0.915,-0.784 1.95899,-3.136719 1.95899,-3.136719 l 0,0.0078 0.004,-0.0078 0,1.433594 c 0.004,-0.0039 0.65268,-0.648738 1.30274,-1.300781 0.654,-0.653 2.09179,-4.703281 2.09179,-5.488281 0,-0.915 1.04297,-2.742188 1.04297,-2.742188 l 0,0.0059 0.004,-0.0078 0,1.300781 c 0.008,-0.0093 1.30573,-1.562846 1.82617,-2.736328 0.522,-1.047 4.57319,-4.181562 5.61719,-5.226562 0.915,-1.046 4.57117,-6.923672 7.57617,-9.013672 0.001,-9.12e-4 0.003,-0.001 0.004,-0.002 0.3905,-0.260215 0.73735,-0.480332 1.04883,-0.664063 0.56263,-0.331854 0.99344,-0.532665 1.35351,-0.65625 0.19278,-0.06637 0.3632,-0.106423 0.51367,-0.125 0.0369,-0.0045 0.0844,-0.0215 0.11914,-0.02344 0.14613,-0.0079 0.27483,0.0071 0.39063,0.03906 0.35098,0.09555 0.59017,0.351895 0.88476,0.646484 1.046,0.784001 -2.87406,6.139407 -3.78906,7.316407 -0.78101,1.045 -2.60995,8.753312 -3.00195,10.320312 -0.29733,1.187779 -1.64056,4.015303 -2.61719,5.775391 1.27808,-1.309481 3.05151,-2.898328 3.40039,-3.160156 0.653,-0.524 1.69922,-2.613282 1.69922,-2.613282 l -0.13086,0.914063 c 0,0 1.43723,-2.090578 1.69922,-3.267578 0.13099,-1.044 1.04492,-3.132813 1.04492,-3.132813 l -0.13086,1.175782 c 0,0 1.17563,-2.092282 1.30664,-2.613282 0.26,-0.524 1.56883,-2.874484 4.04883,-6.271484 2.484,-3.658 4.18352,-4.050781 5.22852,-4.050781 1.04398,0.262 -0.2623,3.134984 -0.6543,4.833984 -0.523,1.699 -2.61313,6.010641 -2.74414,7.056641 -0.131,0.914 -1.8294,4.046859 -2.48242,6.005859 -0.51053,2.045031 -1.98468,9.903279 -2.05078,10.255859 4.14513,1.487394 8.01844,3.392478 10.67578,6.464844 0.20277,0.218533 0.44131,0.447208 0.70117,0.677734 0.14002,0.123956 0.30407,0.253636 0.45898,0.38086 0.1415,0.116212 0.27423,0.230333 0.42578,0.347656 0.0941,0.07303 0.19924,0.14724 0.29688,0.220703 1.91082,1.431079 4.43044,2.885132 6.2168,3.730469 1.02359,0.512234 3.13091,1.867877 5.34961,3.269531 2.97458,1.831638 6.12916,3.741401 7.58398,4.177735 2.54759,0.606701 6.21859,4.14761 7.14648,8.208984 0.008,0.03607 0.0214,0.07127 0.0293,0.107422 0.0591,0.273829 0.10599,0.5505 0.13867,0.828125 0.131,1.567002 0.13036,3.133362 0.14649,4.521482 l 0,0.002 c 0.008,0.69327 0.0202,1.34272 0.0547,1.92383 l 0,0.002 c 0.0345,0.58085 0.0918,1.09383 0.18945,1.51757 l 0,0.002 c 0.0325,0.10562 0.0566,0.21438 0.0723,0.32617 l 0,0.002 c 0.0468,0.33674 0.0204,0.69796 -0.0742,1.0586 l -0.002,0.002 c -0.0386,0.14735 -0.10774,0.29179 -0.16797,0.4375 -0.038,0.0918 -0.0612,0.18529 -0.10742,0.27539 -0.11985,0.2337 -0.26606,0.46158 -0.4375,0.67383 -0.17144,0.21225 -0.36802,0.40943 -0.58594,0.58593 -0.21791,0.17652 -0.4575,0.33249 -0.71679,0.45899 -0.12965,0.0632 -0.26331,0.11796 -0.40235,0.16601 -0.41654,0.14402 -0.87586,0.21763 -1.36523,0.19336 5.7e-4,0.005 0.21967,1.76347 -0.27539,2.86524 l 0,0.002 c -0.0825,0.18324 -0.18413,0.3488 -0.31055,0.48438 l -0.002,0 c -0.0545,0.0585 -0.11586,0.10961 -0.17969,0.15625 -0.01,0.007 -0.0174,0.0167 -0.0273,0.0234 -0.0761,0.0518 -0.16019,0.0961 -0.25,0.12891 -0.71808,0.19539 -1.79636,0.35752 -2.95508,0.40625 -0.28923,0.0121 -0.58584,0.017 -0.88086,0.0137 l -0.002,0 c -0.5907,-0.007 -1.1843,-0.0472 -1.7461,-0.13086 l -0.002,0 c -0.28053,-0.0418 -0.55217,-0.0954 -0.8125,-0.16015 l -0.002,0 c -1.961,-0.393 -3.39647,-2.61283 -5.35547,-4.04883 -0.45717,-0.35899 -1.12712,-0.7275 -1.90625,-1.07227 l -0.002,0 c -1.94898,-0.86217 -4.58553,-1.58408 -6.31835,-1.6875 -0.34584,-0.0206 -0.65695,-0.0169 -0.91797,0.0156 l -0.002,0 c -0.5548,0.065 -1.28896,0.23707 -2.07812,0.45703 -2.36871,0.66039 -5.23204,1.76277 -5.23438,1.76367 l 1.4336,0.91406 c 0,0 -1.39416,0.14655 -2.97266,0.0547 l -0.002,0 c -0.52582,-0.0307 -1.07207,-0.0875 -1.59375,-0.18555 l -0.002,0 c -1.10984,-0.26084 -2.38304,-0.32634 -3.3789,-0.32617 -0.49727,1.3e-4 -0.92642,0.0168 -1.23047,0.0332 -0.3017,0.0163 -0.47957,0.0329 -0.48242,0.0332 l 1.17187,1.17383 c -0.002,-3.1e-4 -0.68509,-0.12992 -1.58203,-0.3418 l -0.002,0 c -0.898,-0.21213 -2.00842,-0.50553 -2.85742,-0.83203 -0.10557,-0.0487 -0.20196,-0.0864 -0.29102,-0.11133 l -0.002,0 c -0.26756,-0.0744 -0.46324,-0.0461 -0.60547,0.0449 -0.2847,0.18352 -0.35408,0.62281 -0.35156,1.01758 0.003,0.39391 0.0762,0.74414 0.0762,0.74414 l 0,0.002 c 0,0 -0.0358,-0.0319 -0.0371,-0.0332 -0.0542,-0.0489 -1.34239,-1.19573 -2.92578,-2.08398 -1.01268,0.57018 -2.73614,1.89799 -2.91992,4.47461 0,1.565 0.78515,5.876945 0.78515,5.876945 l -1.96289,-2.220695 c 0,0 1.04645,2.219415 0.52344,5.357415 -0.523,3.134 2.8732,11.88614 3.6582,14.36914 0.65299,2.483 1.17578,5.09375 1.17578,5.09375 l -2.2207,-2.2207 c 0,0 0.522,10.31981 0,11.75781 -0.39203,1.436 0.25977,7.05469 0.25977,7.05469 l -1.69727,-4.96485 -0.65234,10.32031 c 0,0 -0.26114,4.30938 0.13086,5.48438 0.52401,1.306 1.30664,5.35742 1.30664,5.35742 l -2.48243,-3.39648 c 0,0 1.43522,5.09397 0.78321,6.79297 -0.53021,1.14766 -0.22034,2.85919 0.0742,4.15234 a 82.341919,82.341919 0 0 0 1.98047,0.0996 A 82.341919,82.341919 0 0 0 164.68348,82.342065 82.341919,82.341919 0 0 0 82.34169,2.71e-4 Z"
     id="path4721"
     clip-path="none" />
  <path
     style="fill:none;fill-opacity:1;fill-rule:evenodd;stroke:#ffffff;stroke-width:5;stroke-linecap:round;stroke-miterlimit:4;stroke-dasharray:none;stroke-opacity:1"
     d="m 160.5,82.5 a 78,78 0 0 1 -78,78 78,78 0 0 1 -78,-78 78,78 0 0 1 78,-78 78,78 0 0 1 78,78 z"
     id="path4142" />
</svg>
